<svg width="384" height="46" viewBox="0 0 384 46" fill="none" xmlns="http://www.w3.org/2000/svg">
<path d="M6 17.856C6 12.256 7.408 7.888 10.224 4.752C13.072 1.584 17.088 0 22.272 0C27.456 0 31.36 1.504 33.984 4.512C36.64 7.488 37.968 11.728 37.968 17.232C37.968 27.696 33.424 33.344 24.336 34.176V34.512C26.16 34.704 27.504 35.2 28.368 36C29.264 36.8 29.936 37.856 30.384 39.168C30.832 40.512 31.232 41.424 31.584 41.904C31.936 42.384 32.464 42.624 33.168 42.624C34.384 42.624 35.104 41.344 35.328 38.784L36.384 38.88C36.32 40.992 35.664 42.608 34.416 43.728C33.168 44.848 31.424 45.408 29.184 45.408C26.976 45.408 25.264 44.848 24.048 43.728C22.832 42.64 21.904 41.024 21.264 38.88C20.848 37.568 20.496 36.72 20.208 36.336C19.92 35.952 19.552 35.76 19.104 35.76C18.208 35.76 17.024 36.416 15.552 37.728L14.88 36.96C16.16 35.68 17.616 34.896 19.248 34.608V34.32C14.896 33.872 11.6 32.224 9.36 29.376C7.12 26.528 6 22.688 6 17.856ZM28.08 19.296V15.744C28.08 9.888 27.792 6.192 27.216 4.656C26.576 2.896 25.664 1.808 24.48 1.392C23.808 1.136 22.992 1.008 22.032 1.008C21.072 1.008 20.24 1.136 19.536 1.392C18.864 1.648 18.304 2.096 17.856 2.736C17.408 3.376 17.04 4.048 16.752 4.752C16.496 5.456 16.288 6.448 16.128 7.728C15.936 9.584 15.84 12.32 15.84 15.936V19.392C15.84 23.296 15.984 26.08 16.272 27.744C16.592 29.376 16.976 30.544 17.424 31.248C18.416 32.816 19.952 33.6 22.032 33.6C24.56 33.6 26.192 32.544 26.928 30.432C27.696 28.288 28.08 24.576 28.08 19.296Z" fill="white"/>
<path d="M68.0295 34.128H57.0855L56.5575 30.624C56.0455 31.904 55.2775 32.896 54.2535 33.6C53.2615 34.272 51.7735 34.608 49.7895 34.608C44.8295 34.608 42.3495 31.936 42.3495 26.592V12.144H39.6615V11.28H51.2775V27.744C51.2775 29.664 51.4055 30.928 51.6615 31.536C51.9495 32.144 52.4935 32.448 53.2935 32.448C54.1255 32.448 54.8615 31.952 55.5015 30.96C56.1415 29.968 56.4615 28.592 56.4615 26.832V12.144H54.2535V11.28H65.3895V33.264H68.0295V34.128Z" fill="white"/>
<path d="M84.516 24.672V20.592C84.516 17.488 84.34 15.232 83.988 13.824C83.668 12.384 82.9 11.664 81.684 11.664C80.98 11.664 80.404 11.872 79.956 12.288C79.54 12.672 79.236 13.328 79.044 14.256C78.756 15.696 78.612 17.888 78.612 20.832V24.576C78.612 28.064 78.708 30.16 78.9 30.864C79.124 31.568 79.348 32.144 79.572 32.592C79.924 33.36 80.612 33.744 81.636 33.744C82.884 33.744 83.7 33.024 84.084 31.584C84.372 30.56 84.516 28.256 84.516 24.672ZM81.54 34.608C77.54 34.608 74.516 33.584 72.468 31.536C70.42 29.488 69.396 26.56 69.396 22.752C69.396 18.912 70.484 15.968 72.66 13.92C74.868 11.84 77.956 10.8 81.924 10.8C85.892 10.8 88.852 11.76 90.804 13.68C92.756 15.568 93.732 18.464 93.732 22.368C93.732 30.528 89.668 34.608 81.54 34.608Z" fill="white"/>
<path d="M97.4745 27.264V12.144H94.8345V11.28H97.4745V5.088L106.403 2.88V11.28H112.643V12.144H106.403V28.32C106.403 29.824 106.547 30.928 106.835 31.632C107.155 32.336 107.795 32.688 108.755 32.688C109.715 32.688 110.547 32.208 111.251 31.248C111.987 30.288 112.466 28.976 112.69 27.312L113.507 27.408C113.25 29.616 112.547 31.376 111.395 32.688C110.243 33.968 108.339 34.608 105.683 34.608C103.027 34.608 100.995 34.08 99.5865 33.024C98.1785 31.968 97.4745 30.048 97.4745 27.264Z" fill="white"/>
<path d="M126.589 34.608C122.461 34.608 119.357 33.552 117.277 31.44C115.229 29.296 114.205 26.336 114.205 22.56C114.205 18.752 115.357 15.84 117.661 13.824C119.997 11.808 122.957 10.8 126.541 10.8C133.805 10.8 137.293 14.448 137.005 21.744H123.469V23.616C123.469 26.752 123.869 29.12 124.669 30.72C125.469 32.32 126.861 33.12 128.845 33.12C132.557 33.12 134.989 31.136 136.141 27.168L137.005 27.312C136.397 29.616 135.293 31.408 133.693 32.688C132.125 33.968 129.757 34.608 126.589 34.608ZM123.517 20.784H128.461V18.432C128.461 15.84 128.301 14.08 127.981 13.152C127.693 12.192 127.085 11.712 126.157 11.712C125.261 11.712 124.589 12.224 124.141 13.248C123.725 14.24 123.517 15.968 123.517 18.432V20.784Z" fill="white"/>
<path d="M165.58 33.648C167.148 33.648 168.14 33.36 168.556 32.784C169.004 32.208 169.228 31.232 169.228 29.856V20.544H166.156V19.488H179.98V20.544H178.108V34.08H177.388C176.812 33.28 175.996 32.88 174.94 32.88C174.492 32.88 173.148 33.168 170.908 33.744C168.7 34.32 166.812 34.608 165.244 34.608C160.028 34.608 155.98 33.2 153.1 30.384C150.252 27.568 148.828 23.344 148.828 17.712C148.828 12.048 150.316 7.68 153.292 4.608C156.3 1.536 160.332 0 165.388 0C167.34 0 169.292 0.256 171.244 0.767999C173.228 1.248 174.38 1.488 174.7 1.488C175.02 1.488 175.26 1.424 175.42 1.296C175.58 1.136 175.756 0.88 175.948 0.527999H176.476L176.86 10.944H175.996C174.428 7.84 172.844 5.408 171.244 3.648C169.676 1.856 167.916 0.959999 165.964 0.959999C161.068 0.959999 158.62 5.744 158.62 15.312V19.104C158.62 23.904 159.212 27.536 160.396 30C161.612 32.432 163.34 33.648 165.58 33.648Z" fill="white"/>
<path d="M194.652 34.608C190.524 34.608 187.42 33.552 185.34 31.44C183.292 29.296 182.268 26.336 182.268 22.56C182.268 18.752 183.42 15.84 185.724 13.824C188.06 11.808 191.02 10.8 194.604 10.8C201.868 10.8 205.356 14.448 205.068 21.744H191.532V23.616C191.532 26.752 191.932 29.12 192.732 30.72C193.532 32.32 194.924 33.12 196.908 33.12C200.62 33.12 203.052 31.136 204.204 27.168L205.068 27.312C204.46 29.616 203.356 31.408 201.756 32.688C200.188 33.968 197.82 34.608 194.652 34.608ZM191.58 20.784H196.524V18.432C196.524 15.84 196.364 14.08 196.044 13.152C195.756 12.192 195.148 11.712 194.22 11.712C193.324 11.712 192.652 12.224 192.204 13.248C191.788 14.24 191.58 15.968 191.58 18.432V20.784Z" fill="white"/>
<path d="M206.874 11.28H218.442V15.696C218.954 14.224 219.738 13.04 220.794 12.144C221.85 11.248 223.45 10.8 225.594 10.8C230.554 10.8 233.034 13.472 233.034 18.816V33.264H235.722V34.128H222.138V33.264H224.106V17.664C224.106 15.744 223.978 14.512 223.722 13.968C223.466 13.392 223.002 13.104 222.33 13.104C221.306 13.104 220.394 13.776 219.594 15.12C218.826 16.464 218.442 18.096 218.442 20.016V33.264H220.506V34.128H206.874V33.264H209.514V12.144H206.874V11.28Z" fill="white"/>
<path d="M248.98 34.608C244.852 34.608 241.748 33.552 239.668 31.44C237.62 29.296 236.596 26.336 236.596 22.56C236.596 18.752 237.748 15.84 240.052 13.824C242.388 11.808 245.348 10.8 248.932 10.8C256.196 10.8 259.684 14.448 259.396 21.744H245.86V23.616C245.86 26.752 246.26 29.12 247.06 30.72C247.86 32.32 249.252 33.12 251.236 33.12C254.948 33.12 257.38 31.136 258.532 27.168L259.396 27.312C258.788 29.616 257.684 31.408 256.084 32.688C254.516 33.968 252.148 34.608 248.98 34.608ZM245.908 20.784H250.852V18.432C250.852 15.84 250.692 14.08 250.372 13.152C250.084 12.192 249.476 11.712 248.548 11.712C247.652 11.712 246.98 12.224 246.532 13.248C246.116 14.24 245.908 15.968 245.908 18.432V20.784Z" fill="white"/>
<path d="M277.138 12.624C275.954 12.624 274.914 13.392 274.018 14.928C273.122 16.464 272.674 18.288 272.674 20.4V33.264H276.082V34.128H261.106V33.264H263.746V12.144H261.106V11.28H272.674V15.888C273.09 14.256 273.89 13.008 275.074 12.144C276.258 11.248 277.602 10.8 279.106 10.8C280.61 10.8 281.826 11.232 282.754 12.096C283.714 12.928 284.194 14.128 284.194 15.696C284.194 17.232 283.842 18.416 283.138 19.248C282.434 20.08 281.346 20.496 279.874 20.496C278.434 20.496 277.362 20.016 276.658 19.056C275.986 18.096 275.906 16.768 276.418 15.072H278.146C278.946 13.44 278.61 12.624 277.138 12.624Z" fill="white"/>
<path d="M295.688 22.848H297.08V19.152C297.08 16.112 296.904 14.08 296.552 13.056C296.232 12 295.592 11.472 294.632 11.472C294.056 11.472 293.528 11.632 293.048 11.952C292.6 12.24 292.376 12.656 292.376 13.2C292.376 13.712 292.472 14.24 292.664 14.784H293.864C294.12 15.456 294.248 16.272 294.248 17.232C294.248 18.16 293.848 18.976 293.048 19.68C292.248 20.352 291.24 20.688 290.024 20.688C287.272 20.688 285.896 19.36 285.896 16.704C285.896 12.768 289.24 10.8 295.928 10.8C299.736 10.8 302.36 11.456 303.8 12.768C305.272 14.048 306.008 16.416 306.008 19.872V29.616C306.008 31.28 306.472 32.112 307.4 32.112C308.488 32.112 309.128 30.464 309.32 27.168L310.04 27.216C309.912 30.032 309.384 31.968 308.456 33.024C307.528 34.08 306.008 34.608 303.896 34.608C300.056 34.608 297.848 33.424 297.272 31.056C296.856 32.272 296.232 33.168 295.4 33.744C294.568 34.32 293.352 34.608 291.752 34.608C287.016 34.608 284.648 32.672 284.648 28.8C284.648 26.528 285.544 24.976 287.336 24.144C289.16 23.28 291.944 22.848 295.688 22.848ZM293.768 28.752C293.768 30.416 293.848 31.488 294.008 31.968C294.2 32.448 294.536 32.688 295.016 32.688C295.528 32.688 295.992 32.288 296.408 31.488C296.856 30.656 297.08 29.52 297.08 28.08V23.616H296.744C294.76 23.616 293.768 25.072 293.768 27.984V28.752Z" fill="white"/>
<path d="M312.209 27.264V12.144H309.569V11.28H312.209V5.088L321.137 2.88V11.28H327.377V12.144H321.137V28.32C321.137 29.824 321.281 30.928 321.569 31.632C321.889 32.336 322.529 32.688 323.489 32.688C324.449 32.688 325.281 32.208 325.985 31.248C326.721 30.288 327.201 28.976 327.425 27.312L328.241 27.408C327.985 29.616 327.281 31.376 326.129 32.688C324.977 33.968 323.073 34.608 320.417 34.608C317.761 34.608 315.729 34.08 314.321 33.024C312.913 31.968 312.209 30.048 312.209 27.264Z" fill="white"/>
<path d="M344.203 24.672V20.592C344.203 17.488 344.028 15.232 343.676 13.824C343.356 12.384 342.587 11.664 341.371 11.664C340.667 11.664 340.091 11.872 339.643 12.288C339.227 12.672 338.924 13.328 338.732 14.256C338.444 15.696 338.299 17.888 338.299 20.832V24.576C338.299 28.064 338.395 30.16 338.587 30.864C338.811 31.568 339.035 32.144 339.259 32.592C339.611 33.36 340.299 33.744 341.323 33.744C342.571 33.744 343.388 33.024 343.772 31.584C344.06 30.56 344.203 28.256 344.203 24.672ZM341.228 34.608C337.228 34.608 334.203 33.584 332.155 31.536C330.107 29.488 329.083 26.56 329.083 22.752C329.083 18.912 330.172 15.968 332.348 13.92C334.556 11.84 337.644 10.8 341.612 10.8C345.58 10.8 348.539 11.76 350.491 13.68C352.443 15.568 353.419 18.464 353.419 22.368C353.419 30.528 349.356 34.608 341.228 34.608Z" fill="white"/>
<path d="M370.794 12.624C369.61 12.624 368.57 13.392 367.674 14.928C366.778 16.464 366.33 18.288 366.33 20.4V33.264H369.738V34.128H354.762V33.264H357.402V12.144H354.762V11.28H366.33V15.888C366.746 14.256 367.546 13.008 368.73 12.144C369.914 11.248 371.258 10.8 372.762 10.8C374.266 10.8 375.482 11.232 376.41 12.096C377.37 12.928 377.85 14.128 377.85 15.696C377.85 17.232 377.498 18.416 376.794 19.248C376.09 20.08 375.002 20.496 373.53 20.496C372.09 20.496 371.018 20.016 370.314 19.056C369.642 18.096 369.562 16.768 370.074 15.072H371.802C372.602 13.44 372.266 12.624 370.794 12.624Z" fill="white"/>
</svg>
