<svg width="61" height="61" viewBox="0 0 61 61" fill="none" xmlns="http://www.w3.org/2000/svg">
<path d="M15 25.856C15 20.256 16.408 15.888 19.224 12.752C22.072 9.584 26.088 8 31.272 8C36.456 8 40.36 9.504 42.984 12.512C45.64 15.488 46.968 19.728 46.968 25.232C46.968 35.696 42.424 41.344 33.336 42.176V42.512C35.16 42.704 36.504 43.2 37.368 44C38.264 44.8 38.936 45.856 39.384 47.168C39.832 48.512 40.232 49.424 40.584 49.904C40.936 50.384 41.464 50.624 42.168 50.624C43.384 50.624 44.104 49.344 44.328 46.784L45.384 46.88C45.32 48.992 44.664 50.608 43.416 51.728C42.168 52.848 40.424 53.408 38.184 53.408C35.976 53.408 34.264 52.848 33.048 51.728C31.832 50.64 30.904 49.024 30.264 46.88C29.848 45.568 29.496 44.72 29.208 44.336C28.92 43.952 28.552 43.76 28.104 43.76C27.208 43.76 26.024 44.416 24.552 45.728L23.88 44.96C25.16 43.68 26.616 42.896 28.248 42.608V42.32C23.896 41.872 20.6 40.224 18.36 37.376C16.12 34.528 15 30.688 15 25.856ZM37.08 27.296V23.744C37.08 17.888 36.792 14.192 36.216 12.656C35.576 10.896 34.664 9.808 33.48 9.392C32.808 9.136 31.992 9.008 31.032 9.008C30.072 9.008 29.24 9.136 28.536 9.392C27.864 9.648 27.304 10.096 26.856 10.736C26.408 11.376 26.04 12.048 25.752 12.752C25.496 13.456 25.288 14.448 25.128 15.728C24.936 17.584 24.84 20.32 24.84 23.936V27.392C24.84 31.296 24.984 34.08 25.272 35.744C25.592 37.376 25.976 38.544 26.424 39.248C27.416 40.816 28.952 41.6 31.032 41.6C33.56 41.6 35.192 40.544 35.928 38.432C36.696 36.288 37.08 32.576 37.08 27.296Z" fill="white"/>
</svg>
